<?xml version="1.0" encoding="utf-8"?>
<!-- Generator: Adobe Illustrator 27.8.0, SVG Export Plug-In . SVG Version: 6.00 Build 0)  -->
<svg version="1.1" id="Standard_product_icon" xmlns="http://www.w3.org/2000/svg" xmlns:xlink="http://www.w3.org/1999/xlink"
	 x="0px" y="0px" width="24px" height="24px" viewBox="0 0 192 192" enable-background="new 0 0 192 192" xml:space="preserve">
<rect id="bounding_box_1_" fill="none" width="192" height="192"/>
<g id="art_layer">
	<g>
		<path fill="#4285F4" d="M133.52,16.39C122.52,11.17,109.43,8,97,8C59.48,8,37.04,39.06,39.45,69.4
			c1.09,13.73,7.83,27.02,18.98,37.4c4.14,3.84,8.62,7.04,13.26,9.53c-3.58-4.25-6.04-9.47-6.98-15.19
			c-2.49-15.25,7.57-37.69,33.29-37.69c27.66,0,58.14,26.31,60.69,58.64c1.58,19.77-5.93,37.61-18.6,50.04
			C166.37,156.9,184,128.5,184,96C184,60.83,163.35,30.47,133.52,16.39z"/>
		<path fill="#4285F4" d="M152.55,122.6c-1.09-13.73-7.83-27.02-18.98-37.4c-4.14-3.84-8.62-7.04-13.26-9.53
			c3.58,4.25,6.04,9.47,6.98,15.19c2.49,15.25-7.57,37.69-33.29,37.69c-27.66,0-58.14-26.31-60.69-58.64
			c-1.58-19.77,5.93-37.61,18.6-50.04C25.63,35.1,8,63.5,8,96c0,35.17,20.65,65.53,50.48,79.61c11,5.22,24.08,8.39,36.52,8.39
			C132.52,184,154.96,152.94,152.55,122.6z"/>
	</g>
</g>
</svg>
